<svg width="172" height="74" viewBox="0 0 175 43" xmlns="http://www.w3.org/2000/svg" xmlns:xlink="http://www.w3.org/1999/xlink" class=""><title>Burgrill</title><g id="Page-1" stroke="none" stroke-width="1" fill="none" fill-rule="evenodd"><g id="Group-10" transform="translate(0.000000, 0.001338)" fill="#084496" fill-rule="nonzero"><g id="Group_8"><path d="M3.835,25.7797056 L28.655,25.7797056 C30.7595872,25.7896391 32.4751364,24.0942202 32.49,21.9896618 L32.49,21.9096618 C32.4751364,19.8051034 30.7595872,18.1096845 28.655,18.119618 L3.835,18.119618 C1.73041278,18.1096845 0.0148635636,19.8051034 0,21.9096618 L0,21.9896618 C0.0154117683,24.0939889 1.73063759,25.7890882 3.835,25.7797056 Z M1.52,21.9896618 L1.52,21.9096618 C1.52022136,21.8274692 1.52489487,21.7453489 1.534,21.6636618 L4.18,24.2786618 L3.835,24.2786618 C3.22499868,24.2823862 2.63850314,24.04363 2.20454149,23.6149194 C1.77057985,23.1862089 1.52470175,22.6026633 1.521,21.9926618 L1.52,21.9896618 Z M3.92,19.621661 L8.631,24.2776618 L6.331,24.2776618 L2.252,20.2456618 C2.6820989,19.8442112 3.24865709,19.6211624 3.837,19.621661 L3.92,19.621661 Z M28.567,24.2776618 L23.856,19.6216618 L26.156,19.6216618 L30.242,23.6596618 C29.8130642,24.0579 29.2493029,24.279046 28.664,24.2786623 L28.567,24.2776618 Z M26.417,24.2776618 L24.117,24.2776618 L19.406,19.6216618 L21.706,19.6216618 L26.417,24.2776618 Z M21.97,24.2776618 L19.67,24.2776618 L14.959,19.6216618 L17.259,19.6216618 L21.97,24.2776618 Z M17.524,24.2776618 L15.224,24.2776618 L10.513,19.6216618 L12.813,19.6216618 L17.524,24.2776618 Z M13.077,24.2776618 L10.777,24.2776618 L6.066,19.6216618 L8.366,19.6216618 L13.077,24.2776618 Z M30.977,21.9096618 L30.977,21.9896618 C30.9765074,22.0758937 30.9711657,22.1620297 30.961,22.2476618 L28.304,19.6216475 L28.662,19.6216475 C29.931869,19.6172351 30.9650386,20.6427948 30.97,21.9126618 L30.977,21.9096618 Z" id="Path_18"></path><path d="M32.495,11.7976618 C32.4884811,10.1470062 32.0321222,8.52935235 31.175,7.1186618 C30.2729101,5.63883439 29.0707459,4.36445173 27.646,3.3776618 C20.7189714,-1.12588727 11.7890286,-1.12588727 4.862,3.3776618 C3.43738985,4.36460963 2.2352554,5.63896072 1.333,7.1186618 C0.476017986,8.52941335 0.0196703338,10.1470275 0.013,11.7976618 L0.013,12.5496618 L32.495,12.5496618 L32.495,11.7976618 Z M1.574,11.0466618 C1.96620274,8.39175688 3.4912831,6.03773331 5.754,4.5946618 C12.1469665,0.471927656 20.3610335,0.471927656 26.754,4.5946618 C29.0170969,6.03752542 30.5425627,8.39158061 30.935,11.0466618 L1.574,11.0466618 Z" id="Path_19"></path><path d="M30.941,29.3796618 L20.76,29.3796618 L18.606,30.8796618 L30.941,30.8796618 C30.9515156,30.8793921 30.9616943,30.8833816 30.9692259,30.890725 C30.9767576,30.8980683 30.9810035,30.9081427 30.981,30.9186618 L30.981,32.6456618 C30.9738449,33.6057892 30.1911438,34.3790979 29.231,34.3746618 L3.272,34.3746618 C2.31069121,34.3796475 1.52705741,33.6049644 1.521,32.6436618 L1.521,30.9176618 C1.52099654,30.9071427 1.52524244,30.8970683 1.53277409,30.889725 C1.54030574,30.8823816 1.5504844,30.8783921 1.561,30.8786618 L13.902,30.8786618 L11.738,29.3786455 L1.561,29.3786455 C0.704850897,29.3747813 0.00705542808,30.0645253 0.000999999999,30.9206618 L0.000999999999,32.6466618 C0.0136615491,34.4417781 1.47685832,35.8879765 3.272,35.8796618 L7.641,35.8796618 L6.976,41.0406618 L8.508,41.0406618 L9.174,35.8796618 L23.385,35.8796618 L24.051,41.0406618 L25.585,41.0406618 L24.92,35.8796618 L29.232,35.8796618 C31.0265894,35.8879766 32.4893385,34.4422258 32.502,32.6476618 L32.502,30.9206618 C32.4959447,30.0642928 31.7973759,29.3746742 30.941,29.3796618 L30.941,29.3796618 Z" id="Path_20"></path><polygon id="Path_21" points="23.991 13.0756618 20.119 15.7656618 16.247 13.0756618 12.375 15.7656618 8.503 13.0756618 4.631 15.7656618 1.197 13.3796618 0.323 14.6086618 4.632 17.6026618 8.504 14.9126618 12.376 17.6026618 16.248 14.9126618 20.12 17.6026618 23.992 14.9126618 27.864 17.6026618 32.173 14.6086618 31.299 13.3796618 27.864 15.7656618"></polygon><polygon id="Path_22" points="16.249 29.3376618 12.618 26.8146618 1.197 26.8146618 1.197 28.3146618 12.137 28.3146618 16.249 31.1716618 20.361 28.3146618 31.299 28.3146618 31.299 26.8146618 19.88 26.8146618"></polygon><path d="M19.738,4.02665105 C19.3276181,4.03106884 18.9980888,4.36654286 19.001019,4.77693792 C19.0039492,5.18733298 19.3382351,5.51806744 19.7486381,5.51661895 C20.159041,5.51516091 20.4909763,5.18206732 20.491,4.7716618 C20.489942,4.57301377 20.4100132,4.38292246 20.2687977,4.24320725 C20.1275822,4.10349204 19.936648,4.0255981 19.738,4.02665105 Z" id="Path_23"></path><path d="M12.85,4.0266618 C12.439756,4.03161813 12.1107297,4.36732867 12.114024,4.7775894 C12.1173183,5.18785013 12.4516931,5.51823373 12.8619638,5.51660756 C13.2722345,5.51496935 13.6039701,5.18193575 13.604,4.7716618 C13.6029426,4.57283945 13.5228764,4.3825958 13.3814442,4.24285181 C13.240012,4.10310781 13.0488207,4.02533172 12.85,4.0266618 Z" id="Path_24"></path><path d="M23.158,6.97465081 C22.747756,6.97961813 22.4187297,7.31532867 22.422024,7.7255894 C22.4253183,8.13585013 22.7596931,8.46623373 23.1699638,8.46460756 C23.5802345,8.46296935 23.9119701,8.12993575 23.912,7.7196618 C23.909247,7.30583719 23.5718278,6.97244553 23.158,6.97465081 Z" id="Path_25"></path><path d="M9.422,6.9746556 C9.01161814,6.97906884 8.68208882,7.31454286 8.68501899,7.72493792 C8.68794916,8.13533298 9.02223513,8.46606744 9.43263808,8.46461895 C9.84304102,8.46316091 10.1749763,8.13006732 10.175,7.7196618 C10.1722471,7.30622939 9.83543823,6.97299887 9.422,6.9746556 Z" id="Path_26"></path><ellipse id="Ellipse_2" cx="16.268" cy="7.7186618" rx="1" ry="1"></ellipse></g><g id="Group_9" transform="translate(38.940000, 9.153662)"><path d="M22.487,20.423 C22.487,24.461 19.11,26.83 12.763,26.83 L0,26.83 L0,3.471 L12.087,3.471 C18.3,3.471 21.339,5.971 21.339,9.578 C21.3712885,11.7459581 20.1289183,13.7312454 18.165,14.65 C20.7492629,15.3699029 22.5240992,17.7405946 22.487,20.423 Z M6.617,8.243 L6.617,12.743 L11.209,12.743 C13.438,12.743 14.586,11.975 14.586,10.474 C14.586,9.006 13.438,8.238 11.209,8.238 L6.617,8.243 Z M15.734,19.689 C15.734,18.089 14.518,17.319 12.222,17.319 L6.622,17.319 L6.622,22.057 L12.222,22.057 C14.518,22.057 15.734,21.29 15.734,19.689 L15.734,19.689 Z" id="Path_27"></path><path d="M44.907,8.743 L44.907,26.83 L38.795,26.83 L38.795,24.894 C37.3795954,26.3728566 35.405306,27.1849447 33.359,27.13 C28.868,27.13 25.594,24.594 25.594,18.854 L25.594,8.743 L32.009,8.743 L32.009,17.824 C32.009,20.624 33.123,21.724 35.048,21.724 C36.939,21.724 38.492,20.49 38.492,17.453 L38.492,8.743 L44.907,8.743 Z" id="Path_28"></path><path d="M61.287,8.443 L61.287,14.149 C60.8058624,14.0857352 60.3212676,14.0523379 59.836,14.049 C57.236,14.049 55.446,15.349 55.446,18.52 L55.446,26.829 L49.031,26.829 L49.031,8.743 L55.142,8.743 L55.142,10.912 C56.455,9.277 58.587,8.443 61.287,8.443 Z" id="Path_29"></path><path d="M83.433,8.743 L83.433,23.526 C83.433,30.367 79.516,33.604 72.696,33.604 C69.5010632,33.7264106 66.3411618,32.9022549 63.613,31.235 L65.943,26.797 C67.7529901,28.0654945 69.9117847,28.7415372 72.122,28.732 C75.566,28.732 77.022,27.197 77.022,24.361 L77.022,23.761 C75.6176105,25.2456703 73.6254291,26.02847 71.586,25.897 C66.723,25.897 62.604,22.497 62.604,17.154 C62.604,11.848 66.723,8.444 71.586,8.444 C74.119,8.444 76.077,9.244 77.326,10.944 L77.326,8.744 L83.433,8.743 Z M77.085,17.152 C76.8995872,15.0810917 75.1641919,13.4941285 73.085,13.4941285 C71.0058081,13.4941285 69.2704128,15.0810917 69.085,17.152 C69.2531855,19.2363921 70.9938336,20.8422478 73.085,20.8422478 C75.1761664,20.8422478 76.9168145,19.2363921 77.085,17.152 L77.085,17.152 Z" id="Path_30"></path><path d="M99.809,8.443 L99.809,14.149 C99.3275338,14.085671 98.8426023,14.0522736 98.357,14.049 C95.757,14.049 93.967,15.349 93.967,18.52 L93.967,26.829 L87.551,26.829 L87.551,8.743 L93.663,8.743 L93.663,10.912 C94.983,9.277 97.108,8.443 99.809,8.443 Z" id="Path_31"></path><path d="M101.735,3.371 C101.735,1.471 103.288,0 105.651,0 C108.014,0 109.568,1.369 109.568,3.27 C109.568,5.27 108.015,6.741 105.651,6.741 C103.287,6.741 101.735,5.272 101.735,3.371 Z M102.444,8.744 L108.859,8.744 L108.859,26.831 L102.444,26.831 L102.444,8.744 Z" id="Path_32"></path><path d="M113.013,20.488 L113.013,2.068 L119.428,2.068 L119.428,20.155 C119.3534,20.7094885 119.536123,21.2676868 119.924167,21.6707308 C120.312212,22.0737747 120.863082,22.2775272 121.42,22.224 C121.922032,22.2163407 122.416802,22.1028707 122.872,21.891 L123.142,26.663 C122.173341,26.9778152 121.160518,27.135478 120.142,27.130138 C115.714,27.130138 113.013,24.828 113.013,20.488 Z" id="Path_33"></path><path d="M125.439,20.488 L125.439,2.068 L131.855,2.068 L131.855,20.155 C131.780056,20.709383 131.96252,21.2676257 132.350423,21.6707247 C132.738325,22.0738238 133.289148,22.2775955 133.846,22.224 C134.348039,22.2164007 134.842822,22.1029278 135.298,21.891 L135.568,26.663 C134.599369,26.9779328 133.586527,27.1355986 132.568,27.130144 C128.14,27.130144 125.439,24.828 125.439,20.488 Z" id="Path_34"></path></g></g></g></svg>