<svg xmlns="http://www.w3.org/2000/svg" width="491" height="94" viewBox="0 0 491 94" fill="none" class="w-1/2"><g clip-path="url(#aee)"><path d="M13.404 74.746q.002 1.5-1.5 1.499H1.5q-1.5.001-1.5-1.5V18.223q-.002-1.501 1.5-1.5h10.405q1.5-.001 1.499 1.5zm10.435 1.499q-1.501.001-1.5-1.5V18.223q-.001-1.501 1.5-1.5h20.477c13.322 0 23.557 5.997 23.557 23.224V53.18c0 17.315-10.242 23.06-23.557 23.06H23.839zm11.904-12.572h8.743c6.412 0 9.656-2.998 9.656-9.908V39.278c0-6.91-3.244-10.071-9.656-10.071h-8.743zm60.074 13.655c-13.737 0-22.473-6.991-22.473-18.978 0-5.996 2.828-11.236 7.993-13.819-3.994-2.998-6.33-7.243-6.33-12.238 0-9.492 8.156-16.647 20.81-16.647s20.811 7.073 20.811 16.647c0 4.995-2.248 9.24-6.242 12.238 5.159 2.665 7.911 7.823 7.911 13.82 0 11.986-8.66 18.977-22.473 18.977zm0-11.57c5.827 0 9.322-2.998 9.322-7.578 0-4.579-3.495-7.161-9.322-7.161s-9.322 2.664-9.322 7.161c0 4.498 3.578 7.578 9.322 7.578m0-25.56c5.247 0 8.409-2.583 8.409-6.91 0-3.993-3.162-6.412-8.409-6.412-5.246 0-8.326 2.412-8.326 6.412 0 4.327 3.08 6.91 8.326 6.91" fill="#D91F3D"></path><path d="M194.297 16.698c1.959 0 3.162 1.543 3.584 4.623.416.869 1.329 1.499 2.702 1.87 2.293.334 3.414 1.418 3.414 3.25v40.211c0 1.96-1.543 3.162-4.579 3.622-.876.416-1.499 1.335-1.871 2.702-.378 2.293-1.455 3.414-3.25 3.414h-29.724c-2.04-.29-3.042-1.329-3.042-3.124V19.733c.29-2.04 1.291-3.08 3.042-3.08l29.724.038zm-23.771 45.041c0 3.414.831 5.115 2.538 5.115 0 .252 1.039.415 3.08.504h13.24c3.414 0 5.121-.876 5.121-2.583.252 0 .415-.995.497-3.036V31.35c0-3.415-.831-5.122-2.538-5.122 0-.245-1.039-.415-3.08-.497h-13.24c-3.414 0-5.121.875-5.121 2.576-.252 0-.415 1.002-.497 3.042zm78.884-45.212c2.041.29 3.08 1.336 3.08 3.124v2.879c-.29 2.04-1.329 3.08-3.118 3.08H224.6c-3.414 0-5.121.875-5.121 2.582-.252 0-.416.996-.498 3.036v4.957c0 3.408.832 5.115 2.538 5.115 0 .29 1.04.46 3.081.504h24.772c2.041.29 3.08 1.329 3.08 3.118v3.08c-.29 2.04-1.329 3.08-3.124 3.08h-24.773c-3.413 0-5.12.831-5.12 2.538-.252 0-.416 1.04-.504 3.08v4.951c0 3.414.831 5.12 2.538 5.12 0 .253 1.039.416 3.08.498h24.773c2.041.29 3.08 1.336 3.08 3.124v2.873c-.29 2.04-1.329 3.08-3.118 3.08h-29.686c-1.958 0-3.168-1.543-3.584-4.617-.415-.876-1.329-1.5-2.702-1.87-2.292-.335-3.414-1.418-3.414-3.251V26.391c0-1.952 1.544-3.162 4.58-3.622.875-.415 1.499-1.329 1.87-2.702.378-2.293 1.455-3.414 3.25-3.414l29.806-.126zm18.272.089c2.041.29 3.042 1.329 3.042 3.124v34.97c0 3.622 1.247 5.455 3.748 5.455 1.209 0 2.205 1.039 2.998 3.08 0 2.626 1.833 3.911 5.455 3.911s5.454-1.291 5.454-3.911c.668-1.827 1.455-2.747 2.375-2.747 2.702-.541 4.082-1.625 4.082-3.25.207 0 .333-.831.333-2.538V19.733c.29-2.04 1.292-3.08 3.043-3.08h2.916c2.041.29 3.042 1.336 3.042 3.125v39.876c0 1.96-1.625 3.206-4.913 3.792-.623.12-1.373 1.745-2.204 4.87-.624.667-2.205 1.372-4.787 2.078-.416.29-1.04 1.87-1.833 4.742-.876.794-1.751 1.21-2.583 1.21h-9.826c-1.958 0-3.161-1.581-3.577-4.787 0-.668-1.084-1.33-3.25-2.04-1.789 0-2.917-1.582-3.37-4.788-.416-.875-1.329-1.499-2.702-1.87-2.293-.334-3.414-1.418-3.414-3.25V19.732c.29-2.04 1.291-3.08 3.042-3.08l2.954-.037z" fill="#000"></path><path d="M317.757 16.653c2.041.29 3.036 1.336 3.036 3.125v16.527c0 3.414.832 5.121 2.539 5.121 0 .29 1.039.46 3.08.498h13.24c3.369 0 5.076-.832 5.076-2.539.29 0 .46-1.039.542-3.08V19.778c.29-2.041 1.291-3.08 3.036-3.08h2.872c2.041.29 3.08 1.335 3.08 3.124V73.36c-.29 2.041-1.329 3.08-3.118 3.08h-2.872c-2.041-.29-3.042-1.335-3.042-3.124V56.79c0-3.414-.876-5.121-2.583-5.121 0-.29-1.001-.454-3.042-.498h-13.24c-3.413 0-5.12.838-5.12 2.538-.252 0-.416 1.04-.498 3.08v16.528c-.29 2.041-1.291 3.08-3.042 3.08h-2.917c-2.04-.29-3.042-1.329-3.042-3.124v-53.54c.29-2.04 1.291-3.08 3.042-3.08zm50.035-.082c2.041.29 3.036 1.33 3.036 3.118v41.962c0 3.414.838 5.12 2.545 5.12 0 .253 1.039.416 3.08.498h13.24c3.407 0 5.114-.869 5.114-2.576.252 0 .416-1.001.504-3.042V19.689c.29-2.04 1.291-3.08 3.036-3.08h2.916c2.041.29 3.036 1.33 3.036 3.124v46.875c0 1.953-1.543 3.162-4.579 3.622-.875.415-1.499 1.329-1.871 2.702-.378 2.293-1.461 3.414-3.25 3.414H371.54c-1.959 0-3.162-1.544-3.584-4.617-.416-.876-1.329-1.5-2.702-1.871-2.293-.334-3.414-1.417-3.414-3.25V19.733c.29-2.04 1.291-3.08 3.036-3.08zm76.891.127c1.959 0 3.162 1.543 3.584 4.623.415.869 1.329 1.499 2.702 1.87 2.293.334 3.414 1.418 3.414 3.25v14.821c0 1.871-1.455 3.124-4.409 3.748-.586.542-.876 1.04-.876 1.543 0 1.04 1.247 1.87 3.748 2.539 1.039.793 1.543 1.706 1.543 2.752v14.82c0 1.96-1.543 3.163-4.579 3.623-.92.415-1.543 1.335-1.871 2.702-.378 2.292-1.461 3.414-3.25 3.414h-29.723c-2.041-.29-3.036-1.33-3.036-3.125V19.733c.289-2.04 1.291-3.08 3.036-3.08l29.723.038zm-23.771 19.601c0 3.414.837 5.12 2.544 5.12 0 .29 1.04.46 3.08.498h13.24c3.37 0 5.077-.831 5.077-2.538.29 0 .46-1.04.542-3.08v-4.95c0-3.415-.876-5.122-2.583-5.122 0-.245-.995-.415-3.036-.497h-13.24c-3.414 0-5.114.875-5.114 2.576-.252 0-.416 1.002-.504 3.042V36.3zm0 25.44c0 3.414.837 5.115 2.544 5.115 0 .252 1.04.415 3.08.504h13.24c3.37 0 5.077-.876 5.077-2.583.29 0 .46-.995.542-3.036v-4.957c0-3.414-.876-5.12-2.583-5.12 0-.29-.995-.454-3.036-.498h-13.24c-3.414 0-5.114.838-5.114 2.538-.252 0-.416 1.04-.504 3.08v4.957z" fill="#D91F3D"></path><path d="m489.998 44.128-5.48-5.48V12.956c0-1.48-.882-2.752-2.104-3.527-1.581-1.014-3.81-.737-5.102-2.242-1.253-1.462-1.058-3.584-1.977-5.21-.712-1.265-1.947-1.914-3.383-1.914h-20.011v9.454h14.727c7.961.095 7.224-.491 7.275 7.496v24.086l3.779 3.779a2.36 2.36 0 0 1 0 3.344l-3.779 3.78v24.514c-.051 7.987.686 7.4-7.275 7.495h-14.727v9.026h20.011c1.436 0 2.671-.648 3.383-1.914.913-1.632.724-3.754 1.977-5.21 1.292-1.505 3.515-1.228 5.102-2.242 1.222-.78 2.104-2.047 2.104-3.527V54.458l5.48-5.48a3.43 3.43 0 0 0 0-4.843z" fill="#000"></path><path d="M165.852 9.026V0h-20.011c-1.436 0-2.671.649-3.382 1.915-.914 1.63-.725 3.754-1.978 5.209-1.291 1.505-3.515 1.228-5.102 2.242-1.222.78-2.104 2.047-2.104 3.527v25.988l-5.184 5.184a3.43 3.43 0 0 0 0 4.844l5.184 5.184V80.08c0 1.48.882 2.746 2.104 3.527 1.581 1.014 3.811.737 5.102 2.243 1.253 1.46 1.058 3.584 1.978 5.209.711 1.266 1.946 1.914 3.382 1.914h20.011V83.52h-14.726c-7.962-.094-7.225.491-7.275-7.495V51.636l-3.477-3.477a2.36 2.36 0 0 1 0-3.344l3.477-3.477V16.52c.05-7.987-.687-7.4 7.275-7.495z" fill="#D91F3D"></path></g><defs><clipPath id="aee"><path fill="#000" d="M0 0h491v93.031H0z"></path></clipPath></defs></svg>