<svg width="400" height="100" viewBox="0 0 400 100" fill="none" xmlns="http://www.w3.org/2000/svg">
<path d="M171.166 28C171.166 33.9384 169 38.887 164.667 42.8459L169.317 47.6078H163.994L161.585 45.1429C158.484 47.0476 155.16 48 151.611 48C146.568 48 142.03 46.0952 137.995 42.2857C133.998 38.4388 132 33.6769 132 28C132 22.3231 133.998 17.5798 137.995 13.7703C142.03 9.92344 146.568 8 151.611 8C156.766 8 161.305 9.90476 165.227 13.7143C169.186 17.5238 171.166 22.2857 171.166 28ZM151.611 43.5742C154.114 43.5742 156.374 43.014 158.391 41.8936L150.098 33.3782H155.421L161.529 39.6527C164.667 36.6275 166.235 32.7432 166.235 28C166.235 23.4435 164.797 19.7087 161.921 16.7955C159.082 13.845 155.645 12.3697 151.611 12.3697C147.801 12.3697 144.402 13.845 141.413 16.7955C138.462 19.746 136.987 23.4809 136.987 28C136.987 32.4818 138.462 36.1979 141.413 39.1485C144.402 42.099 147.801 43.5742 151.611 43.5742Z" fill="white"/>
<path d="M198.332 18.4762H202.815V47.6078H198.332V40.549C197.959 42.155 196.838 43.7983 194.97 45.479C193.102 47.1597 190.749 48 187.91 48C184.772 48 182.176 46.9916 180.122 44.9748C178.067 42.958 177.04 39.8394 177.04 35.619V18.4762H181.523V35.507C181.523 38.4575 182.158 40.6237 183.428 42.0056C184.698 43.3875 186.416 44.0784 188.583 44.0784C191.011 44.0784 193.121 43.1447 194.914 41.2773C196.707 39.3725 197.846 37.3184 198.332 35.1148V18.4762Z" fill="white"/>
<path d="M214.256 8.39216V12.5938H209.718V8.39216H214.256ZM214.256 18.4762V47.6078H209.718V18.4762H214.256Z" fill="white"/>
<path d="M226.123 8.39216V47.6078H221.585V8.39216H226.123Z" fill="white"/>
<path d="M237.724 8.39216V47.6078H233.185V8.39216H237.724Z" fill="white"/>
<path d="M274.875 47.6078L270 36.6835H252.518L247.643 47.6078H242.656L260.755 8.39216H261.763L279.806 47.6078H274.875ZM254.255 32.7619H268.263L261.259 16.9636L254.255 32.7619Z" fill="white"/>
<path d="M305.307 18.4762H309.79V47.6078H305.307V40.549C304.933 42.155 303.813 43.7983 301.945 45.479C300.077 47.1597 297.724 48 294.885 48C291.747 48 289.151 46.9916 287.097 44.9748C285.042 42.958 284.015 39.8394 284.015 35.619V18.4762H288.497V35.507C288.497 38.4575 289.132 40.6237 290.403 42.0056C291.673 43.3875 293.391 44.0784 295.557 44.0784C297.986 44.0784 300.096 43.1447 301.889 41.2773C303.682 39.3725 304.821 37.3184 305.307 35.1148V18.4762Z" fill="white"/>
<path d="M339.217 8.39216H343.7V47.6078H339.217V41.8936C338.433 43.6863 337.125 45.1615 335.295 46.3193C333.465 47.4398 331.429 48 329.188 48C325.676 48 322.501 46.6741 319.662 44.0224C316.823 41.3707 315.404 37.7106 315.404 33.042C315.404 30.6517 315.833 28.4855 316.692 26.5434C317.552 24.564 318.654 22.9953 319.998 21.8375C321.343 20.6424 322.8 19.7274 324.369 19.0924C325.975 18.4575 327.581 18.1401 329.188 18.1401C331.466 18.1401 333.521 18.6816 335.351 19.7647C337.181 20.8478 338.47 22.267 339.217 24.0224V8.39216ZM322.912 41.1653C324.929 43.1074 327.208 44.0784 329.748 44.0784C332.288 44.0784 334.529 43.1447 336.472 41.2773C338.414 39.3725 339.385 36.6275 339.385 33.042C339.385 29.4566 338.414 26.7302 336.472 24.8627C334.529 22.9953 332.288 22.0616 329.748 22.0616C327.208 22.0616 324.929 23.0327 322.912 24.9748C320.895 26.9169 319.886 29.606 319.886 33.042C319.886 36.4781 320.895 39.1858 322.912 41.1653Z" fill="white"/>
<path d="M354.828 8.39216V12.5938H350.29V8.39216H354.828ZM354.828 18.4762V47.6078H350.29V18.4762H354.828Z" fill="white"/>
<path d="M370.842 44.0224C372.112 44.0224 373.401 43.7236 374.708 43.1261V46.9356C373.363 47.6078 371.701 47.944 369.721 47.944C365.949 47.944 364.062 45.8712 364.062 41.7255V22.1737H360.476V18.4762H364.062V13.4342H368.545V18.4762H374.652V22.1737H368.545V41.3333C368.545 43.1261 369.31 44.0224 370.842 44.0224Z" fill="white"/>
<path d="M394.901 25.423C393.594 23.1074 391.651 21.9496 389.074 21.9496C387.654 21.9496 386.496 22.3231 385.6 23.07C384.741 23.7796 384.311 24.6573 384.311 25.7031C384.311 26.6741 384.61 27.4958 385.208 28.1681C385.843 28.8403 386.926 29.4379 388.457 29.9608L391.427 31.0252C394.303 32.0336 396.451 33.1354 397.871 34.3305C399.29 35.5257 400 37.281 400 39.5966C400 42.1363 398.898 44.1718 396.694 45.7031C394.49 47.2344 392.025 48 389.298 48C386.72 48 384.367 47.3091 382.238 45.9272C380.109 44.5453 378.727 42.6965 378.092 40.381L382.014 39.3165C382.499 40.7731 383.433 41.9496 384.815 42.8459C386.197 43.705 387.692 44.1345 389.298 44.1345C390.867 44.1345 392.268 43.7236 393.5 42.902C394.733 42.043 395.349 40.9412 395.349 39.5966C395.349 38.4388 394.957 37.4865 394.173 36.7395C393.388 35.9925 392.193 35.3389 390.587 34.7787L387.225 33.6022C384.535 32.6312 382.611 31.5481 381.453 30.3529C380.295 29.1578 379.716 27.6265 379.716 25.7591C379.716 23.5929 380.613 21.7815 382.406 20.3249C384.236 18.8683 386.44 18.1401 389.018 18.1401C393.687 18.1401 397.012 20.2129 398.991 24.3585L394.901 25.423Z" fill="white"/>
<path d="M235.349 71.1951L228.26 90.7046H227.559L221.675 76.7971L215.762 90.7046H215.09L208 71.1951H211.082L215.678 84.4337L221.282 71.1951H222.067L227.671 84.4337L232.267 71.1951H235.349Z" fill="white"/>
<path d="M242.567 76.0446C243.37 76.0446 244.183 76.2025 245.005 76.5184C245.827 76.8343 246.593 77.2895 247.302 77.8841C248.012 78.4601 248.591 79.2404 249.04 80.2252C249.488 81.21 249.712 82.2969 249.712 83.4861C249.712 83.8577 249.684 84.2107 249.628 84.5452H238.279C238.429 85.7529 238.933 86.7098 239.793 87.4158C240.671 88.1033 241.614 88.447 242.623 88.447C244.08 88.447 245.219 87.9918 246.041 87.0814L248.339 88.3356C246.863 90.045 244.958 90.8997 242.623 90.8997C241.819 90.8997 241.007 90.751 240.185 90.4537C239.363 90.1379 238.578 89.6919 237.831 89.1159C237.102 88.5214 236.505 87.741 236.038 86.7748C235.589 85.79 235.365 84.6938 235.365 83.4861C235.365 82.2969 235.589 81.21 236.038 80.2252C236.486 79.2404 237.065 78.4601 237.775 77.8841C238.504 77.2895 239.279 76.8343 240.101 76.5184C240.923 76.2025 241.745 76.0446 242.567 76.0446ZM242.567 78.4972C241.558 78.4972 240.633 78.8317 239.793 79.5006C238.971 80.1695 238.476 81.1263 238.307 82.3712H246.854C246.667 81.1263 246.153 80.1695 245.313 79.5006C244.472 78.8317 243.557 78.4972 242.567 78.4972Z" fill="white"/>
<path d="M259.766 76.0446C261.504 76.0446 263.082 76.7042 264.502 78.0234C265.941 79.3426 266.66 81.1542 266.66 83.4582C266.66 85.0561 266.296 86.4404 265.567 87.6109C264.838 88.7629 263.96 89.599 262.933 90.1193C261.924 90.6395 260.869 90.8997 259.766 90.8997C258.683 90.8997 257.721 90.6302 256.88 90.0914C256.04 89.534 255.479 88.893 255.199 88.1683V90.7046H252.369V71.1951H255.199V78.6366C255.46 77.9305 256.011 77.3266 256.852 76.825C257.693 76.3047 258.664 76.0446 259.766 76.0446ZM256.348 87.1929C257.207 88.0476 258.216 88.4749 259.374 88.4749C260.532 88.4749 261.56 88.029 262.457 87.1371C263.372 86.2453 263.83 85.019 263.83 83.4582C263.83 81.916 263.372 80.7083 262.457 79.835C261.56 78.9431 260.532 78.4972 259.374 78.4972C258.216 78.4972 257.207 78.9153 256.348 79.7514C255.488 80.5875 255.059 81.8231 255.059 83.4582C255.059 85.0933 255.488 86.3382 256.348 87.1929Z" fill="white"/>
<path d="M282.87 71.1951L278.078 78.9431C279.404 79.036 280.525 79.6027 281.44 80.6433C282.375 81.6652 282.842 82.9565 282.842 84.5173C282.842 86.4682 282.16 88.0383 280.796 89.2274C279.432 90.398 277.779 90.9833 275.836 90.9833C273.875 90.9833 272.249 90.398 270.96 89.2274C269.69 88.0569 269.055 86.6169 269.055 84.9075H271.885C271.885 86.0223 272.287 86.9049 273.09 87.5552C273.893 88.2055 274.809 88.5307 275.836 88.5307C276.901 88.5307 277.863 88.2055 278.722 87.5552C279.582 86.8863 280.011 85.8737 280.011 84.5173C280.011 83.4025 279.591 82.4827 278.75 81.7581C277.91 81.0149 276.798 80.6433 275.416 80.6433C275.023 80.6433 274.566 80.6897 274.043 80.7826L278.414 73.6198H269.727V71.1951H282.87Z" fill="white"/>
<path d="M300.8 71C302.35 71 303.695 71.3809 304.835 72.1427C305.974 72.9045 306.796 73.8335 307.301 74.9298L304.779 75.7938C304.48 75.1063 303.985 74.5582 303.294 74.1494C302.621 73.722 301.818 73.5084 300.884 73.5084C299.894 73.5084 299.081 73.7406 298.446 74.2051C297.811 74.6696 297.493 75.2735 297.493 76.0167C297.493 76.7042 297.708 77.2709 298.138 77.7168C298.586 78.1628 299.314 78.553 300.323 78.8874L301.892 79.4169C303.835 80.0673 305.283 80.8755 306.236 81.8417C307.207 82.8079 307.693 83.997 307.693 85.4091C307.693 87.1 306.983 88.4378 305.563 89.4225C304.162 90.4073 302.574 90.8997 300.8 90.8997C299.062 90.8997 297.549 90.4816 296.26 89.6455C294.99 88.8094 294.102 87.7038 293.598 86.3289L296.008 85.2698C296.344 86.1802 296.942 86.9327 297.801 87.5273C298.661 88.1033 299.66 88.3913 300.8 88.3913C301.883 88.3913 302.817 88.1312 303.602 87.6109C304.405 87.0907 304.807 86.3567 304.807 85.4091C304.807 84.5173 304.517 83.8391 303.938 83.3746C303.359 82.8915 302.444 82.4363 301.192 82.0089L299.567 81.4236C297.979 80.8662 296.755 80.1695 295.896 79.3333C295.036 78.4972 294.607 77.3917 294.607 76.0167C294.607 74.5674 295.205 73.369 296.4 72.4214C297.614 71.4738 299.081 71 300.8 71Z" fill="white"/>
<path d="M317.027 76.0446C317.83 76.0446 318.643 76.2025 319.465 76.5184C320.287 76.8343 321.053 77.2895 321.763 77.8841C322.473 78.4601 323.052 79.2404 323.5 80.2252C323.948 81.21 324.173 82.2969 324.173 83.4861C324.173 83.8577 324.145 84.2107 324.089 84.5452H312.74C312.889 85.7529 313.394 86.7098 314.253 87.4158C315.131 88.1033 316.074 88.447 317.083 88.447C318.54 88.447 319.68 87.9918 320.502 87.0814L322.8 88.3356C321.324 90.045 319.418 90.8997 317.083 90.8997C316.28 90.8997 315.467 90.751 314.645 90.4537C313.823 90.1379 313.039 89.6919 312.291 89.1159C311.563 88.5214 310.965 87.741 310.498 86.7748C310.05 85.79 309.825 84.6938 309.825 83.4861C309.825 82.2969 310.05 81.21 310.498 80.2252C310.946 79.2404 311.525 78.4601 312.235 77.8841C312.964 77.2895 313.739 76.8343 314.561 76.5184C315.383 76.2025 316.205 76.0446 317.027 76.0446ZM317.027 78.4972C316.018 78.4972 315.094 78.8317 314.253 79.5006C313.431 80.1695 312.936 81.1263 312.768 82.3712H321.314C321.128 81.1263 320.614 80.1695 319.773 79.5006C318.933 78.8317 318.017 78.4972 317.027 78.4972Z" fill="white"/>
<path d="M333.638 76.0446C334.778 76.0446 335.908 76.3419 337.029 76.9365C338.15 77.5124 339.047 78.3579 339.719 79.4727L337.169 80.3645C336.366 79.1011 335.189 78.4693 333.638 78.4693C332.499 78.4693 331.481 78.9153 330.584 79.8071C329.687 80.699 329.239 81.9253 329.239 83.4861C329.239 85.0282 329.687 86.2453 330.584 87.1371C331.481 88.0104 332.499 88.447 333.638 88.447C334.33 88.447 334.993 88.2891 335.628 87.9732C336.282 87.6574 336.795 87.1929 337.169 86.5797L339.719 87.4716C339.047 88.5864 338.15 89.4411 337.029 90.0357C335.908 90.6117 334.778 90.8997 333.638 90.8997C332.835 90.8997 332.022 90.751 331.2 90.4537C330.378 90.1379 329.603 89.6919 328.875 89.1159C328.146 88.5214 327.548 87.741 327.081 86.7748C326.633 85.79 326.409 84.6938 326.409 83.4861C326.409 82.2783 326.633 81.1821 327.081 80.1973C327.548 79.2126 328.146 78.4322 328.875 77.8562C329.603 77.2616 330.378 76.8157 331.2 76.5184C332.022 76.2025 332.835 76.0446 333.638 76.0446Z" fill="white"/>
<path d="M352.719 76.2118H355.549V90.7046H352.719V87.388C352.532 88.1498 351.99 88.9301 351.094 89.7291C350.197 90.5095 349.067 90.8997 347.703 90.8997C346.134 90.8997 344.826 90.398 343.78 89.3946C342.753 88.3913 342.239 86.8305 342.239 84.7124V76.2118H345.069V84.6009C345.069 85.9201 345.349 86.8956 345.91 87.5273C346.47 88.1405 347.217 88.447 348.151 88.447C349.291 88.447 350.29 87.9918 351.15 87.0814C352.009 86.1709 352.532 85.2326 352.719 84.2664V76.2118Z" fill="white"/>
<path d="M366.529 76.0725C366.978 76.0725 367.37 76.1003 367.706 76.1561V78.748C367.426 78.7109 367.024 78.6923 366.501 78.6923C365.156 78.7109 364.026 79.1661 363.111 80.058C362.195 80.9498 361.644 82.1669 361.457 83.709V90.7046H358.627V76.2118H361.457V80.7269C361.626 79.3891 362.139 78.2835 362.999 77.4103C363.877 76.5184 365.054 76.0725 366.529 76.0725Z" fill="white"/>
<path d="M373.233 71.1951V73.7592H370.347V71.1951H373.233ZM373.233 76.2118V90.7046H370.347V76.2118H373.233Z" fill="white"/>
<path d="M381.706 88.447C382.285 88.447 382.92 88.3077 383.612 88.029V90.3701C382.939 90.7046 382.07 90.8718 381.006 90.8718C379.978 90.8718 379.165 90.6117 378.568 90.0914C377.989 89.5712 377.699 88.6143 377.699 87.2207V78.5251H376.018V76.2118H377.699V73.7035H380.529V76.2118H383.612V78.5251H380.529V87.0814C380.529 87.9918 380.922 88.447 381.706 88.447Z" fill="white"/>
<path d="M397.198 76.2118H400L391.93 96H389.156L391.453 90.2865L385.317 76.2118H388.119L392.798 86.9699L397.198 76.2118Z" fill="white"/>
<path d="M105.974 55.781L60.1557 99.9998L56.1038 93.7498L99.4281 50.6248V50.4685L65.9219 16.406L68.4154 9.37476L108 50.156L105.974 55.781Z" fill="white"/>
<path fill-rule="evenodd" clip-rule="evenodd" d="M34.5977 69.688C35.0652 68.1255 35.6886 66.7192 36.3119 65.3129C38.9613 59.8442 42.5456 55.0005 46.4417 50.4692C51.5846 44.6879 57.3508 39.5317 63.8962 35.3129C66.7013 33.4379 69.6624 31.8754 72.9351 30.7817C73.0909 30.6254 73.4026 30.6254 73.7143 30.4692L71.8441 32.8129C69.8182 35.3129 67.6364 37.8129 65.9221 40.6254C65.7663 40.9379 65.6104 40.9379 65.2987 40.9379C64.052 41.2504 62.6494 41.5629 61.2468 41.5629C61.7144 42.1879 62.4936 42.5004 63.1169 42.8129C63.4286 42.9692 64.052 42.9692 64.2078 43.4379C64.2078 43.7504 63.7403 44.2192 63.5845 44.5317C63.2728 45.3129 62.6494 45.7817 61.8702 45.9379C60.6235 46.2504 59.3767 46.5629 57.9741 46.5629C57.9741 46.8754 58.13 46.8754 58.2858 47.0317C59.065 47.6567 60.0001 48.1254 60.9351 48.4379C61.2468 48.5942 61.2468 48.7504 61.091 49.0629C60.7793 49.8442 60.1559 50.1567 59.3767 50.3129C57.3508 50.9379 55.3248 51.4067 53.2988 51.5629H53.143C53.6105 52.0317 54.078 52.3442 54.5456 52.6567C55.4806 53.1254 56.4157 53.4379 57.5066 53.7504C57.6624 53.7504 57.8183 53.9067 57.6624 54.0629C56.8832 55.1567 56.104 56.2505 55.0131 57.0317C54.2339 57.813 53.2988 57.813 52.2079 57.813H48.6235C47.6885 57.813 46.7534 57.813 45.8184 57.9692C45.0391 58.1254 44.4158 58.4379 43.9482 59.0629C42.3898 60.7817 41.4548 62.9692 40.3639 65.0004L39.8963 65.9379C39.5846 67.188 38.8054 67.813 37.7145 68.2817C36.7795 68.4379 35.6886 69.0629 34.5977 69.688Z" fill="white"/>
<path opacity="0.98" d="M1.87012 44.375L47.688 0L51.7399 6.25L8.41553 49.5313V49.6875L42.0776 83.5938L39.5841 90.625L0 50L1.87012 44.375Z" fill="white"/>
</svg>
